<svg width="1255" height="625" viewBox="0 0 1255 625" fill="none" xmlns="http://www.w3.org/2000/svg">
<mask id="mask0_3_2" style="mask-type:alpha" maskUnits="userSpaceOnUse" x="0" y="0" width="1255" height="625">
<path d="M722.5 20.2951C669.7 -16.9049 589.167 8.1284 555.5 25.2951C516.7 29.2951 448 57.6284 418.5 71.2951C309.061 106.394 239 166.795 147 196.679C55 226.562 24.6615 284.528 1 309.795L637.5 623.795L1253.5 309.795C1257.1 283.395 1205 256.462 1178.5 246.295C1130.5 235.495 1026.5 177.795 980.5 150.295C951.7 112.295 891.167 91.1284 864.5 85.2951C849.7 58.8951 822 51.6284 810 51.2951C763.6 45.2951 732.333 28.1284 722.5 20.2951Z" fill="#4B3B24" stroke="black"/>
</mask>
<g mask="url(#mask0_3_2)">
<path d="M722.5 20.2951C669.7 -16.9049 589.167 8.1284 555.5 25.2951C516.7 29.2951 448 57.6284 418.5 71.2951C309.061 106.394 239 166.795 147 196.679C55 226.562 24.6615 284.528 1 309.795L637.5 623.795L1253.5 309.795C1257.1 283.395 1205 256.462 1178.5 246.295C1130.5 235.495 1026.5 177.795 980.5 150.295C951.7 112.295 891.167 91.1284 864.5 85.2951C849.7 58.8951 822 51.6284 810 51.2951C763.6 45.2951 732.333 28.1284 722.5 20.2951Z" fill="#4B3B24" stroke="black"/>
<path d="M284.5 200C281.3 124.4 426.5 18.8333 499.5 -24.5L625.5 -66.5L662.5 0.5C678.1 27.7 752 55.8333 787 66.5C866.6 80.1 970.833 147.167 1013 179C1035 201 1139.5 247.833 1189 268.5C1263.8 304.1 1270.83 342 1265 356.5C1114 440.5 810.7 608.8 805.5 610C800.3 611.2 646.667 657.5 570.5 680.5L499.5 558.5C484.7 504.9 418.333 495.833 387 498L107 364.5C102.6 316.5 45.8333 319.833 18 327.5C46.4 261.1 207.5 214.833 284.5 200Z" fill="#604929"/>
<path d="M521.5 85.5C587.9 70.7 584.833 -10 575 -48.5L613.5 -11.5H631.5L864 42L1282.5 283.5C1261.3 341.5 1109.83 359 1067.5 371.5C1013.9 369.5 992.5 391.667 988.5 403C938.1 448.2 884.5 447.167 864 441C890.4 437.8 918 419.667 928.5 411C782.5 425.8 731 474.833 723.5 497.5H751C726.6 547.9 667.5 543.833 641 535.5C629.4 518.7 603.5 528.5 592 535.5C557.2 537.5 573.167 504 585.5 487H534.5C492.5 527.8 473.333 504 469 487C419.8 471 464.167 424.333 492.5 403C469.3 359.8 502.167 326.333 521.5 315H459.5C455.1 382.2 396.667 401.667 368 403C357.6 383.8 342.667 388 336.5 392.5C238.1 409.3 256.833 333.833 278.5 294C226.1 329.6 117.667 328.167 70 323C71.2 252.6 163.833 220.333 210 213C259.2 213 294.5 188.333 306 176C346 123.6 399.667 118.167 421.5 122C447.5 98.8 499 88 521.5 85.5Z" fill="#725A38"/>
<path d="M667.5 76.5C668.7 65.3 650.333 41.8333 641 31.5L666 38C673.2 53.6 710 63.1667 727.5 66C775.5 73.6 900.833 132.833 957.5 161.5C990.3 188.7 1077.83 229.833 1117.5 247C1191.9 276.6 1235.17 315.333 1247.5 331C1234.7 340.6 1127.5 335 1075.5 331L1062.5 366.5L1036 342.5C1021.2 374.9 984.5 372 968 366.5C1006 360.5 1033.83 315 1043 293H991.5L981 260L968 286.5L907.5 273V247H855C807.8 226.2 841.333 205 864 197C913.2 197 901.167 164.667 889 148.5C889 185.3 846.333 172.5 825 161.5C799.8 186.7 743.5 195.667 718.5 197C681.7 203.4 662.167 250.333 657 273C611.8 339 590.833 283.167 586 247L540 293C582 228.2 548.833 210.667 527 210C481.8 214 439.833 267 424.5 293L401 302C455.8 212.8 522.5 179.833 549 174.5L527 148.5C476.6 145.3 506 116.5 527 102.5C553.4 70.9 614 84 641 94.5C641 73.5 666 90.5 667.5 76.5Z" fill="#BD9A64"/>
<path d="M804 247C788.667 248.167 757.2 262.1 754 308.5C767.167 292.833 795.6 258.6 804 247Z" fill="#BD9A64"/>
<path d="M754 399L840.5 323V342.5L754 399Z" fill="#BD9A64"/>
<path d="M1197 267C1270.2 285.8 1295.5 341.833 1299 367.5L1349.5 375.5L1362 287.5L778.5 1H656C672.4 31 754.833 62.8333 794 75C864.4 95 934.667 133.667 961 150.5C1017.8 190.5 1142 244.833 1197 267Z" fill="#4B3B24"/>
<path d="M174 262H160.5L152 273H168V281.5L179 273L174 262Z" fill="#493A27"/>
<path d="M385 421H371.5L363 432H379V440.5L390 432L385 421Z" fill="#493A27"/>
<path d="M622.362 532.844L611.618 541.017L611.512 554.918L624.247 545.231L629.393 551.996L633.002 538.572L622.362 532.844Z" fill="#493A27"/>
<path d="M831.1 482.391L839.839 472.101L836.955 458.502L826.599 470.698L820.12 465.196L819.479 479.083L831.1 482.391Z" fill="#493A27"/>
<path d="M433.398 391.017L445.862 385.831L449.484 372.409L434.712 378.556L431.446 370.709L424.556 382.783L433.398 391.017Z" fill="#493A27"/>
<path d="M654.108 109.456L666.572 104.269L670.193 90.8476L655.421 96.9948L652.156 89.1472L645.265 101.221L654.108 109.456Z" fill="#493A27"/>
<path d="M735.157 121.757L730.315 134.359L737.535 146.239L743.273 131.303L751.208 134.351L747.218 121.035L735.157 121.757Z" fill="#493A27"/>
<path d="M860.177 170.182L870.571 178.796L884.135 175.751L871.816 165.541L877.24 158.996L863.346 158.522L860.177 170.182Z" fill="#493A27"/>
<path d="M1302 -16.5H1287V2.5H1302H1211" stroke="black"/>
<path d="M127.571 347.858L129.988 334.576L120.686 324.244L117.823 339.986L109.46 338.465L115.854 350.808L127.571 347.858Z" fill="#493A27"/>
<path d="M158.866 317.977L156.544 331.276L165.918 341.541L168.67 325.779L177.043 327.241L170.562 314.943L158.866 317.977Z" fill="#493A27"/>
<path d="M219.678 353.797L228.058 354.392L234.787 334.3L224.856 333.594L225.979 317.779L218.028 333.11L219.678 353.797Z" fill="#493A27"/>
<ellipse cx="905" cy="335.5" rx="6" ry="6.5" fill="#604929"/>
<ellipse cx="844" cy="346.5" rx="6" ry="6.5" fill="#604929"/>
<ellipse cx="914.5" cy="362" rx="3.5" ry="4" fill="#604929"/>
<ellipse cx="936.5" cy="379" rx="3.5" ry="4" fill="#604929"/>
<ellipse cx="870.5" cy="324" rx="3.5" ry="4" fill="#604929"/>
<ellipse cx="884.5" cy="394" rx="3.5" ry="4" fill="#604929"/>
<ellipse cx="891.5" cy="351" rx="2.5" ry="3" fill="#604929"/>
<ellipse cx="938.5" cy="313" rx="2.5" ry="3" fill="#604929"/>
<ellipse cx="895.5" cy="368" rx="2.5" ry="3" fill="#604929"/>
<ellipse cx="952.5" cy="346" rx="2.5" ry="3" fill="#604929"/>
<ellipse cx="881" cy="365.5" rx="2" ry="2.5" fill="#604929"/>
<ellipse cx="849.5" cy="379" rx="1.5" ry="2" fill="#604929"/>
<ellipse cx="772" cy="236.5" rx="6" ry="6.5" fill="#604929"/>
<ellipse cx="711" cy="247.5" rx="6" ry="6.5" fill="#604929"/>
<ellipse cx="781.5" cy="263" rx="3.5" ry="4" fill="#604929"/>
<ellipse cx="803.5" cy="280" rx="3.5" ry="4" fill="#604929"/>
<ellipse cx="737.5" cy="225" rx="3.5" ry="4" fill="#604929"/>
<ellipse cx="751.5" cy="295" rx="3.5" ry="4" fill="#604929"/>
<ellipse cx="758.5" cy="252" rx="2.5" ry="3" fill="#604929"/>
<ellipse cx="805.5" cy="214" rx="2.5" ry="3" fill="#604929"/>
<ellipse cx="762.5" cy="269" rx="2.5" ry="3" fill="#604929"/>
<ellipse cx="819.5" cy="247" rx="2.5" ry="3" fill="#604929"/>
<ellipse cx="748" cy="266.5" rx="2" ry="2.5" fill="#604929"/>
<ellipse cx="716.5" cy="280" rx="1.5" ry="2" fill="#604929"/>
<ellipse cx="742.799" cy="381.9" rx="6" ry="6.5" transform="rotate(143.133 742.799 381.9)" fill="#604929"/>
<ellipse cx="785.002" cy="336.503" rx="6" ry="6.5" transform="rotate(143.133 785.002 336.503)" fill="#604929"/>
<ellipse cx="719.3" cy="366.399" rx="3.5" ry="4" transform="rotate(143.133 719.3 366.399)" fill="#604929"/>
<ellipse cx="691.5" cy="365.997" rx="3.5" ry="4" transform="rotate(143.133 691.5 365.997)" fill="#604929"/>
<ellipse cx="777.3" cy="370.402" rx="3.5" ry="4" transform="rotate(143.133 777.3 370.402)" fill="#604929"/>
<ellipse cx="724.102" cy="322.799" rx="3.5" ry="4" transform="rotate(143.133 724.102 322.799)" fill="#604929"/>
<ellipse cx="744.3" cy="361.4" rx="2.5" ry="3" transform="rotate(143.133 744.3 361.4)" fill="#604929"/>
<ellipse cx="729.497" cy="420" rx="2.5" ry="3" transform="rotate(143.133 729.497 420)" fill="#604929"/>
<ellipse cx="730.901" cy="350.2" rx="2.5" ry="3" transform="rotate(143.133 730.901 350.2)" fill="#604929"/>
<ellipse cx="698.498" cy="401.998" rx="2.5" ry="3" transform="rotate(143.133 698.498 401.998)" fill="#604929"/>
<ellipse cx="744.001" cy="343.5" rx="2" ry="2.5" transform="rotate(143.133 744.001 343.5)" fill="#604929"/>
<ellipse cx="761.103" cy="313.801" rx="1.5" ry="2" transform="rotate(143.133 761.103 313.801)" fill="#604929"/>
<ellipse cx="603" cy="337.5" rx="6" ry="6.5" fill="#604929"/>
<ellipse cx="542" cy="348.5" rx="6" ry="6.5" fill="#604929"/>
<ellipse cx="612.5" cy="364" rx="3.5" ry="4" fill="#604929"/>
<ellipse cx="634.5" cy="381" rx="3.5" ry="4" fill="#604929"/>
<ellipse cx="568.5" cy="326" rx="3.5" ry="4" fill="#604929"/>
<ellipse cx="582.5" cy="396" rx="3.5" ry="4" fill="#604929"/>
<ellipse cx="589.5" cy="353" rx="2.5" ry="3" fill="#604929"/>
<ellipse cx="636.5" cy="315" rx="2.5" ry="3" fill="#604929"/>
<ellipse cx="593.5" cy="370" rx="2.5" ry="3" fill="#604929"/>
<ellipse cx="650.5" cy="348" rx="2.5" ry="3" fill="#604929"/>
<ellipse cx="579" cy="367.5" rx="2" ry="2.5" fill="#604929"/>
<ellipse cx="547.5" cy="381" rx="1.5" ry="2" fill="#604929"/>
<ellipse cx="625.669" cy="475.277" rx="6" ry="6.5" transform="rotate(160.484 625.669 475.277)" fill="#604929"/>
<ellipse cx="679.489" cy="444.53" rx="6" ry="6.5" transform="rotate(160.484 679.489 444.53)" fill="#604929"/>
<ellipse cx="607.862" cy="453.473" rx="3.5" ry="4" transform="rotate(160.484 607.862 453.473)" fill="#604929"/>
<ellipse cx="581.446" cy="444.799" rx="3.5" ry="4" transform="rotate(160.484 581.446 444.799)" fill="#604929"/>
<ellipse cx="662.028" cy="474.59" rx="3.5" ry="4" transform="rotate(160.484 662.028 474.59)" fill="#604929"/>
<ellipse cx="625.448" cy="413.289" rx="3.5" ry="4" transform="rotate(160.484 625.448 413.289)" fill="#604929"/>
<ellipse cx="633.215" cy="456.157" rx="2.5" ry="3" transform="rotate(160.484 633.215 456.157)" fill="#604929"/>
<ellipse cx="601.61" cy="507.676" rx="2.5" ry="3" transform="rotate(160.484 601.61 507.676)" fill="#604929"/>
<ellipse cx="623.765" cy="441.47" rx="2.5" ry="3" transform="rotate(160.484 623.765 441.47)" fill="#604929"/>
<ellipse cx="577.39" cy="481.249" rx="2.5" ry="3" transform="rotate(160.484 577.39 481.249)" fill="#604929"/>
<ellipse cx="638.268" cy="438.983" rx="2" ry="2.5" transform="rotate(160.484 638.268 438.983)" fill="#604929"/>
<ellipse cx="663.448" cy="415.735" rx="1.5" ry="2" transform="rotate(160.484 663.448 415.735)" fill="#604929"/>
<ellipse cx="495.007" cy="297.292" rx="6" ry="6.5" transform="rotate(160.484 495.007 297.292)" fill="#604929"/>
<ellipse cx="548.827" cy="266.546" rx="6" ry="6.5" transform="rotate(160.484 548.827 266.546)" fill="#604929"/>
<ellipse cx="477.2" cy="275.488" rx="3.5" ry="4" transform="rotate(160.484 477.2 275.488)" fill="#604929"/>
<ellipse cx="450.784" cy="266.815" rx="3.5" ry="4" transform="rotate(160.484 450.784 266.815)" fill="#604929"/>
<ellipse cx="531.366" cy="296.606" rx="3.5" ry="4" transform="rotate(160.484 531.366 296.606)" fill="#604929"/>
<ellipse cx="494.786" cy="235.305" rx="3.5" ry="4" transform="rotate(160.484 494.786 235.305)" fill="#604929"/>
<ellipse cx="502.553" cy="278.173" rx="2.5" ry="3" transform="rotate(160.484 502.553 278.173)" fill="#604929"/>
<ellipse cx="470.948" cy="329.691" rx="2.5" ry="3" transform="rotate(160.484 470.948 329.691)" fill="#604929"/>
<ellipse cx="493.103" cy="263.486" rx="2.5" ry="3" transform="rotate(160.484 493.103 263.486)" fill="#604929"/>
<ellipse cx="446.728" cy="303.264" rx="2.5" ry="3" transform="rotate(160.484 446.728 303.264)" fill="#604929"/>
<ellipse cx="507.606" cy="260.998" rx="2" ry="2.5" transform="rotate(160.484 507.606 260.998)" fill="#604929"/>
<ellipse cx="532.786" cy="237.75" rx="1.5" ry="2" transform="rotate(160.484 532.786 237.75)" fill="#604929"/>
<ellipse cx="310.007" cy="331.292" rx="6" ry="6.5" transform="rotate(160.484 310.007 331.292)" fill="#604929"/>
<ellipse cx="363.827" cy="300.546" rx="6" ry="6.5" transform="rotate(160.484 363.827 300.546)" fill="#604929"/>
<ellipse cx="292.2" cy="309.488" rx="3.5" ry="4" transform="rotate(160.484 292.2 309.488)" fill="#604929"/>
<ellipse cx="265.784" cy="300.815" rx="3.5" ry="4" transform="rotate(160.484 265.784 300.815)" fill="#604929"/>
<ellipse cx="346.366" cy="330.606" rx="3.5" ry="4" transform="rotate(160.484 346.366 330.606)" fill="#604929"/>
<ellipse cx="309.786" cy="269.305" rx="3.5" ry="4" transform="rotate(160.484 309.786 269.305)" fill="#604929"/>
<ellipse cx="317.553" cy="312.173" rx="2.5" ry="3" transform="rotate(160.484 317.553 312.173)" fill="#604929"/>
<ellipse cx="285.948" cy="363.691" rx="2.5" ry="3" transform="rotate(160.484 285.948 363.691)" fill="#604929"/>
<ellipse cx="308.103" cy="297.486" rx="2.5" ry="3" transform="rotate(160.484 308.103 297.486)" fill="#604929"/>
<ellipse cx="261.728" cy="337.264" rx="2.5" ry="3" transform="rotate(160.484 261.728 337.264)" fill="#604929"/>
<ellipse cx="322.606" cy="294.998" rx="2" ry="2.5" transform="rotate(160.484 322.606 294.998)" fill="#604929"/>
<ellipse cx="347.786" cy="271.75" rx="1.5" ry="2" transform="rotate(160.484 347.786 271.75)" fill="#604929"/>
<ellipse cx="374.514" cy="189.597" rx="6" ry="6.5" transform="rotate(0.545492 374.514 189.597)" fill="#604929"/>
<ellipse cx="313.412" cy="200.016" rx="6" ry="6.5" transform="rotate(0.545492 313.412 200.016)" fill="#604929"/>
<ellipse cx="383.761" cy="216.186" rx="3.5" ry="4" transform="rotate(0.545492 383.761 216.186)" fill="#604929"/>
<ellipse cx="405.598" cy="233.395" rx="3.5" ry="4" transform="rotate(0.545492 405.598 233.395)" fill="#604929"/>
<ellipse cx="340.125" cy="177.769" rx="3.5" ry="4" transform="rotate(0.545492 340.125 177.769)" fill="#604929"/>
<ellipse cx="353.458" cy="247.899" rx="3.5" ry="4" transform="rotate(0.545492 353.458 247.899)" fill="#604929"/>
<ellipse cx="360.867" cy="204.968" rx="2.5" ry="3" transform="rotate(0.545492 360.867 204.968)" fill="#604929"/>
<ellipse cx="408.227" cy="167.417" rx="2.5" ry="3" transform="rotate(0.545492 408.227 167.417)" fill="#604929"/>
<ellipse cx="364.705" cy="222.005" rx="2.5" ry="3" transform="rotate(0.545492 364.705 222.005)" fill="#604929"/>
<ellipse cx="421.912" cy="200.549" rx="2.5" ry="3" transform="rotate(0.545492 421.912 200.549)" fill="#604929"/>
<ellipse cx="350.23" cy="219.367" rx="2" ry="2.5" transform="rotate(0.545492 350.23 219.367)" fill="#604929"/>
<ellipse cx="318.602" cy="232.567" rx="1.5" ry="2" transform="rotate(0.545492 318.602 232.567)" fill="#604929"/>
<path d="M752 79H763V91.0312H774V114H763V98.3229H752V79Z" fill="#816746"/>
<path d="M878.232 133.953L876.361 144.792L864.505 142.746L862.634 153.586L840 149.679L841.871 138.84L857.32 141.506L859.191 130.666L878.232 133.953Z" fill="#816746"/>
<ellipse cx="972" cy="243.5" rx="6" ry="6.5" fill="#6B5337"/>
<ellipse cx="1108" cy="268.5" rx="6" ry="6.5" fill="#6B5337"/>
<ellipse cx="1127" cy="292.5" rx="6" ry="6.5" fill="#6B5337"/>
<ellipse cx="1049" cy="311.5" rx="6" ry="6.5" fill="#6B5337"/>
<path d="M606.597 254.43L588.679 220.693L587.943 251.732L606.597 254.43Z" fill="#82913D"/>
<path d="M563.745 177.894L537.286 151.548L552.147 177.95L563.745 177.894Z" fill="#82913D"/>
<path d="M697.228 191L679.013 223.595L700.416 202.152L697.228 191Z" fill="#82913D"/>
</g>
</svg>
