<svg xmlns="http://www.w3.org/2000/svg" width="1255" height="625" fill="none" xmlns:v="https://vecta.io/nano"><mask id="A" maskUnits="userSpaceOnUse" x="0" y="0" width="1255" height="625" mask-type="alpha"><path d="M722.5 20.295c-52.8-37.2-133.333-12.167-167 5-38.8 4-107.5 32.333-137 46-109.439 35.099-179.5 95.5-271.5 125.384S24.662 284.528 1 309.795l636.5 314 616-314c3.6-26.4-48.5-53.333-75-63.5-48-10.8-152-68.5-198-96-28.8-38-89.333-59.167-116-65-14.8-26.4-42.5-33.667-54.5-34-46.4-6-77.667-23.167-87.5-31z" fill="#205822" stroke="#000"/></mask><g mask="url(#A)"><path d="M722.5 20.295c-52.8-37.2-133.333-12.167-167 5-38.8 4-107.5 32.333-137 46-109.439 35.099-179.5 95.5-271.5 125.384S24.662 284.528 1 309.795l636.5 314 616-314c3.6-26.4-48.5-53.333-75-63.5-48-10.8-152-68.5-198-96-28.8-38-89.333-59.167-116-65-14.8-26.4-42.5-33.667-54.5-34-46.4-6-77.667-23.167-87.5-31z" fill="#205822" stroke="#000"/><path d="M220 176.795c79.6-65.6 293-135.5 385.5-174.5l91-19 576 286.5v44.5c-105.2 21.6-262.5 87.333-328 117.5-54 50-183.5 107.833-241.5 130.5-57.2.8-78.5 40.667-82 60.5-4-29.6-95-66.333-140-81-18-6.4-21.5-27.667-21-37.5l-11.5 26c-125.6-114.4-291-155-358-161 51.2-41.6-13-65-51.5-71.5 42.4-11.6 135.5-93.667 181-121z" fill="#2c7d30" stroke="#32962f" stroke-width="2"/><path d="M557.533 54.295c50.4-58.4 143.333-52 183.5-41.5l99 36 385.497 200c-19.6 59.6-130.5 114.833-183.5 135-71.997 10-147.664 41.5-176.497 56 12.4-31.6 82.5-58.833 116-68.5h-72c-5.2 18.8-41.834 32.5-59.5 37h-57.5c-52.4 29.6-68.167 76.667-69.5 96.5l52.5-25.5c-24.4 53.2-59.5 56.5-74 51.5-18.8-10-26.5-57.5-28-80-10 78-55.167 94.167-76.5 92.5-18-39.6 1.5-78.167 13.5-92.5-30.4-6.4-81 16.333-102.5 28.5v-20.5l-25.5-8c9.2-26.4-3.834-90.333-11.5-119-58.4 72-157.667 56.333-200 39.5-2.8-32.4 19.166-81.833 30.5-102.5-18.8-6.4-66.5 29-88 47.5l15-47.5c-49.2 33.2-85.834 49.167-98 53-48.4-58.4-14.167-64 9-59.5 50.4 12 80.333-26.667 89-47.5 63.2-83.6 156.666-115.833 195.5-121.5 27.2-30 100.333-38.5 133.5-39z" fill="#78b33d" stroke="#97c06d" stroke-width="3"/><path d="M681 67.295c2.4-37.2-74.667-31.167-113.5-23.5 0-25.6 29-44.667 43.5-51l79-7 537.5 257.5 46.5 65-46.5 14c-58.8-24-141.17-24.333-175-21.5-2 31.2-15.83 32.333-22.5 29v-21.5l-36.546 17.269c-2.715 1.715-5.692 3.144-8.954 4.231l8.954-4.231c25.246-15.948 27.806-56.604 25.546-76.769l23-5.5v-17h-23v-11c-10.4-18-22.333-.167-27 11-18.4 0-44.333 23.667-55 35.5l-15-13-114.5 59.5 55-59.5c32.8-32.8 22.333-52.667 13-58.5-114.8 98.4-224.167 119.667-264.5 118 68.4-85.6 183.167-120.667 232-127.5l32.5-33.5h-68l7.5-17.5-71.5 8 9-19.5c32-18.44 13.333-23.683 0-24l-24 43.5c-72 14-151.667 57.5-182.5 77.5v-34.5c-46.8.8-84.833 30.667-98 45.5 27.6-62.8 76.833-78.833 98-79l6.5-17.5c-57.2-10.4-58.5-28-52-35.5 23.2-14.8 61.667-1.167 78 7.5 79.6 3.2 101.5-21.667 102.5-34.5z" fill="#d4fbbc"/><path d="M567.5 43.795c38.833-7.667 115.9-13.7 113.5 23.5-1 12.833-22.9 37.7-102.5 34.5-16.333-8.667-54.8-22.3-78-7.5-6.5 7.5-5.2 25.1 52 35.5l-6.5 17.5c-21.167.167-70.4 16.2-98 79 13.167-14.833 51.2-44.7 98-45.5v34.5c30.833-20 110.5-63.5 182.5-77.5l24-43.5c13.333.317 32 5.56 0 24l-9 19.5 71.5-8-7.5 17.5h68l-32.5 33.5c-48.833 6.833-163.6 41.9-232 127.5 40.333 1.667 149.7-19.6 264.5-118 9.333 5.833 19.8 25.7-13 58.5l-55 59.5 114.5-59.5 15 13c10.667-11.833 36.6-35.5 55-35.5 4.667-11.167 16.6-29 27-11v11h23v17l-23 5.5c2.5 22.333-.9 69.8-34.5 81l45.5-21.5v21.5c6.67 3.333 20.5 2.2 22.5-29 33.83-2.833 116.2-2.5 175 21.5l46.5-14-46.5-65L690-14.205l-79 7c-14.5 6.333-43.5 25.4-43.5 51z" stroke="#ebf5e3"/><path d="M605.5 125.295c-10.5 1.167-31.7 7.4-32.5 23s21.333-8.833 32.5-23zm37 25.322c79.6-22.4 95.5-57 93.5-71.5-7.6-19.6-44 12.011-57 20.178-22 6.4-51 30.156-67 51.322h30.5z" fill="#78b33d"/><path d="M899 165.295c9.411 6.345 25.409 19.222 14.116 19.971S899 172.264 899 165.295zm208.91 83.841c-15.7 10.928-44.74 28.164-35.36 9.681s27.48-14.156 35.36-9.681zM343 236.295c-11.863 9.033-33.707 23.437-26.181 8.786s20.59-11.962 26.181-8.786zm-84-1c6.752 8.196 17.595 23.504 6.944 19.166s-9.067-14.585-6.944-19.166zm135.093-94c6.753 8.196 17.595 23.504 6.944 19.166s-9.067-14.585-6.944-19.166zm25.099 33.174c7.866-7.135 22.639-18.694 18.814-7.849s-14.137 9.751-18.814 7.849zm65.35-20.142c-6.052-8.725-15.594-24.876-5.338-19.673s7.833 15.283 5.338 19.673zm249.603 209.035c-4.697-7.732-11.967-22.138-3.463-17.905s5.852 13.7 3.463 17.905zm-14-45.533c-4.698-7.732-11.967-22.138-3.464-17.905s5.852 13.701 3.464 17.905zm25.06 8.176c9.026.616 24.989 2.974 16.63 7.485s-14.57-3.11-16.63-7.485zM835 341.737c9.026.615 24.989 2.973 16.63 7.485s-14.569-3.11-16.63-7.485zm128.202-29.081c3.732-15.03 11.525-40.648 12.844-22.872s-8.013 22.655-12.844 22.872zM314.594 181.119c-8.122 8.848-13.962 30.449-16.094 41.676-8.8-12-10-26.333-9.5-32-2-7.2 5.5-6.667 9.5-5.5 6.91 0 12.414-2.047 16.094-4.176 1.403-1.528 2.874-2.676 4.406-3.324-.841.901-2.334 2.125-4.406 3.324z" fill="#205822"/><path d="M646.55 207.185l14.45-5.89c0 8.133-2.205 23.642-11.027 20.613s-5.958-11.078-3.423-14.723zm60.347-6.999l-10.175 11.83c-3.708-7.239-8.816-22.048.417-23.374s10.352 7.143 9.758 11.544zm287.853 72.721l-10.176 11.829c-3.708-7.239-8.815-22.048.417-23.374s10.353 7.144 9.759 11.545zm-179.409-86.653l-5.767 8.482c-3.097-6.047-7.781-18.205-1.737-18.457s7.521 6.545 7.504 9.975zm-11.617 78.665l-5.726 7.817c-2.737-5.343-6.779-16.134-1.054-16.555s6.906 5.65 6.78 8.738zm23.069-1l-5.726 7.817c-2.737-5.343-6.78-16.134-1.054-16.555s6.905 5.65 6.78 8.738zm18.633-20.666L834 249.207c4.557-12.359 14.487-35.47 17.751-29.038s-2.857 18.07-6.325 23.084z" fill="#efdfac"/><path d="M664 121.295c-10.775 6.966-30.792 17.843-24.657 5.625s18.994-8.841 24.657-5.625z" fill="#205822"/><path d="M534.721 522.148c-4.901-9.977-12.366-29.326-3.024-26.91s5.909 18.947 3.024 26.91zM361 415.295c-10.626 1.287-30.349 1.925-24.229-5.815s18.703.651 24.229 5.815z" fill="#78b33d"/><path d="M653.5 6.295c-44-1.6-95.667 20.333-116 31.5l-68 17c20-19.333 61.6-59 68-63s103-15 150.5-20l553 274.5c4.8.8 24.33 39 33.5 58l-51.5 40.5v-27.5c34.4-22-27-52.5-62-65-15.2-4-83-38.333-115-55l-71.5-44.5c-27.2-31.6-93.333-55.167-123-63-9.2-20.8-40.5-27.667-55-28.5-27.2-4.8-69.333-28-87-39-12.8-12.4-42.667-15.833-56-16z" fill="#2c7d30"/></g></svg>