<svg width="588" height="716" viewBox="0 0 588 716" fill="none" xmlns="http://www.w3.org/2000/svg">
<mask id="mask0_9_320" style="mask-type:alpha" maskUnits="userSpaceOnUse" x="253" y="41" width="95" height="551">
<rect x="253" y="41" width="95" height="551" fill="#624025"/>
</mask>
<g mask="url(#mask0_9_320)">
<rect x="253" y="41" width="95" height="551" fill="#624025"/>
<rect x="236" y="-13" width="28" height="623" fill="#A17844"/>
<rect width="11" height="623" transform="matrix(-1 0 0 1 284 -13)" fill="#2A1E12"/>
<path d="M264.5 386.5L252 364L247 357.5V419L264.5 438V386.5Z" fill="#B59371"/>
<path d="M290.5 407H284V488.5H290.5V407Z" fill="#B59371"/>
<path d="M290.5 307.5H284V281H290.5V307.5Z" fill="#B59371"/>
<rect x="240" y="351" width="54" height="260" fill="url(#paint0_linear_9_320)" fill-opacity="0.5"/>
<path d="M214 285.5L367.5 309.5L376.5 271L214 285.5Z" fill="#34200C" fill-opacity="0.5"/>
<path d="M323.5 122.5L382.5 26.5L309 11L280.5 99.5L323.5 122.5Z" fill="#311E10"/>
<path d="M323.5 122.5L382.5 26.5L309 11L280.5 99.5L323.5 122.5Z" stroke="black"/>
<path d="M323.5 122.5L382.5 26.5L309 11L280.5 99.5L323.5 122.5Z" stroke="black" stroke-opacity="0.2"/>
</g>
<mask id="mask1_9_320" style="mask-type:alpha" maskUnits="userSpaceOnUse" x="0" y="0" width="588" height="299">
<path d="M35.5 56.5L6.5 47H0V299L569.5 280.5L587.5 266.5V119L557.5 97.5L569.5 83.5L572.5 56.5L544.5 39.5L459.5 47L343.5 56.5L328.5 109H309L300.5 87.5L315.5 30.5L267 39.5V0.5L217.5 47L35.5 56.5Z" fill="#BE852B"/>
</mask>
<g mask="url(#mask1_9_320)">
<path d="M35.5 56.5L6.5 47H0V299L569.5 280.5L587.5 266.5V119L557.5 97.5L569.5 83.5L572.5 56.5L544.5 39.5L459.5 47L343.5 56.5L328.5 109H309L300.5 87.5L315.5 30.5L267 39.5V0.5L217.5 47L35.5 56.5Z" fill="#BE852B"/>
<rect x="-7" y="-17" width="613" height="342" fill="url(#paint1_linear_9_320)"/>
<path d="M329.5 105.5L371.5 43L336 49L329.5 105.5Z" fill="#8B5F22"/>
<path d="M302.5 52.5L319 25.5L329.5 20.5L307 95L293 98L281 95L293 86L297 75.5L302.5 52.5Z" fill="#8B5F22"/>
<path d="M567.5 112.5L564.5 98H585L622.5 117L589 177L587.663 168.535C566.864 168.696 531.991 168.873 530.5 168.5C528.9 168.1 535.167 163.667 538.5 161.5L585.813 156.816L581.5 129.5L567.5 119.5V112.5Z" fill="#8B5F22"/>
<path d="M556.5 228L596.5 219.5V223.5L561 237L556.5 228Z" fill="#8B5F22"/>
<path d="M543.5 282L596.5 233L618.5 255.5L567.5 295.5L543.5 282Z" fill="#8B5F22"/>
<path d="M238 64.5L300 15L294.5 -17L34.5 64.5H238Z" fill="#93642E"/>
<path d="M547 84.5L576.5 81L586 103.5L567.5 122.5L547 118L531.5 122.5H504.5L498.5 114.5L524 97.5C519.833 95 511.5 88.9 511.5 84.5C511.5 80.1 514.833 76.3333 516.5 75H528L547 84.5Z" fill="#8D6122"/>
<path d="M34.5 64.5L-11 50.5V42.5L197.5 38.5L273.5 -3L215.5 55L34.5 64.5Z" fill="#7B5F3D"/>
<path d="M571 48L345 56.5L348 50.5L566 25.5L571 48Z" fill="#7B5F3D"/>
<path d="M583.5 252.5L555.5 289.5L600.5 293.5L608.5 35.5L561.5 41V74.5L549.5 95L578.5 102.5L574 118L594.5 135V172.5L574 185.5V198.5L594.5 213.5L583.5 237.5L555.5 242L583.5 252.5Z" fill="#423411"/>
<path d="M36 291.5C32 291.5 11 300.5 1 305L562 334L569.5 281.5L524 273C363 279.167 40 291.5 36 291.5Z" fill="#DAB173"/>
<path d="M5.5 101L-5.5 89V132.5L23.5 119V107.5L5.5 101Z" fill="#9D6E23"/>
<path d="M5.5 173.5H-5.5V193.5L11.5 187L5.5 173.5Z" fill="#9D6E23"/>
<path d="M20.5 235L-5.5 238.5V263.5H11.5V252L20.5 242.5V235Z" fill="#9D6E23"/>
<path d="M7 95.5L-6.5 76V89.5L3 107L18 112L26.5 107L7 95.5Z" fill="#DBA75B"/>
<path d="M15 167.5L-2.5 170L-6.5 177L13.5 172L15 167.5Z" fill="#DBA75B"/>
<path d="M18 234.5L-2.5 237.5V228.5H18L23 234.5V246.5L18 234.5Z" fill="#DBA75B"/>
<path d="M52 131.5C17.2 132.3 -21.8333 124.167 -37 120L-22 137C2.66666 140.167 53.8 146.2 61 145C68.2 143.8 69.3333 131.5 69 125.5H81.5L87 120C79.8 115.6 66.6667 118.167 61 120C63.8 127.6 56.1667 130.833 52 131.5Z" fill="#A56E1E"/>
<path d="M24.5 237C39.3 237 60.3333 227.667 69 223V237C64.2 248.2 33.3333 248.667 18.5 247.5L24.5 237Z" fill="#A56E1E"/>
</g>
<circle cx="300.5" cy="246.5" r="14.5" fill="#261E1B"/>
<mask id="mask2_9_320" style="mask-type:alpha" maskUnits="userSpaceOnUse" x="9" y="381" width="488" height="335">
<path d="M468.543 676C365.743 747.2 189.043 705.667 113.543 676C100.343 658 116.043 650.167 125.543 648.5C135.143 646.9 137.21 632.167 137.043 625C109.043 611 61.043 574.5 40.543 558C10.543 527.2 7.37637 496.5 9.54304 485C11.543 499 40.7097 516.5 55.043 523.5C85.843 537.5 154.21 588.667 184.543 612.5C188.943 587.3 182.71 565.667 179.043 558C153.043 486.4 92.8764 415.5 66.0431 389C62.8431 379 76.3764 380.833 83.5431 383C127.943 410.2 187.376 494.667 211.543 533.5C198.743 493.5 206.21 420.5 211.543 389C215.543 421 240.876 454.667 253.043 467.5C271.443 502.7 283.71 549.5 287.543 568.5C293.143 546.1 316.21 529.167 327.043 523.5C353.043 504.3 355.876 441.833 354.043 413C383.643 449 385.71 490 383.043 506C413.043 498 420.21 473.333 420.043 462C434.843 482.8 433.21 493 430.543 495.5C400.143 520.7 388.876 557.333 387.043 572.5C386.71 559.5 385.443 540.5 383.043 568.5C380.643 596.5 394.376 598.833 401.543 596.5C406.343 569.7 429.876 543.333 441.043 533.5C433.043 553.1 444.376 565 451.043 568.5C459.443 552.1 484.876 538.333 496.543 533.5L468.543 568.5C474.943 562.1 485.21 565.833 489.543 568.5C459.143 586.1 462.876 647.5 468.543 676Z" fill="#62A718"/>
</mask>
<g mask="url(#mask2_9_320)">
<path d="M468.543 676C365.743 747.2 189.043 705.667 113.543 676C100.343 658 116.043 650.167 125.543 648.5C135.143 646.9 137.21 632.167 137.043 625C109.043 611 61.043 574.5 40.543 558C10.543 527.2 7.37637 496.5 9.54304 485C11.543 499 40.7097 516.5 55.043 523.5C85.843 537.5 154.21 588.667 184.543 612.5C188.943 587.3 182.71 565.667 179.043 558C153.043 486.4 92.8764 415.5 66.0431 389C62.8431 379 76.3764 380.833 83.5431 383C127.943 410.2 187.376 494.667 211.543 533.5C198.743 493.5 206.21 420.5 211.543 389C215.543 421 240.876 454.667 253.043 467.5C271.443 502.7 283.71 549.5 287.543 568.5C293.143 546.1 316.21 529.167 327.043 523.5C353.043 504.3 355.876 441.833 354.043 413C383.643 449 385.71 490 383.043 506C413.043 498 420.21 473.333 420.043 462C434.843 482.8 433.21 493 430.543 495.5C400.143 520.7 388.876 557.333 387.043 572.5C386.71 559.5 385.443 540.5 383.043 568.5C380.643 596.5 394.376 598.833 401.543 596.5C406.343 569.7 429.876 543.333 441.043 533.5C433.043 553.1 444.376 565 451.043 568.5C459.443 552.1 484.876 538.333 496.543 533.5L468.543 568.5C474.943 562.1 485.21 565.833 489.543 568.5C459.143 586.1 462.876 647.5 468.543 676Z" fill="#62A718"/>
<path d="M5 481.5C31.3333 518.333 97.3 596.3 150.5 613.5L185.488 643.373C186.802 627.369 183.263 602.287 166.5 568L48.5 396.5L55.5 377.5C93.1667 400.5 174.8 469.5 200 561.5L211.5 621.5L190.896 647.991L301 742L55.5 684.5L-3 500.5L5 481.5Z" fill="#5C951C"/>
<path d="M348 651C244 610.6 213.667 448.5 211.5 372.5L336 509.5C305.6 561.9 331.333 625.667 348 651Z" fill="#5C951C"/>
<path d="M400 676.5C425.2 587.7 481.5 543.833 506.5 533L518.5 693.5C473.5 719.833 377.4 768 353 750C328.6 732 374.167 693.5 400 676.5Z" fill="#5C951C"/>
<path d="M214 631.5C186 584.3 166.667 488.167 160.5 446C170.1 477.6 203.833 546.833 219.5 577.5C207.9 539.9 220 490.167 227.5 470C219.5 534 248.167 604.333 263.5 631.5C272.7 663.9 326 656.333 351.5 648.5C317.9 644.1 300.5 604.667 296 585.5C286.8 541.5 329.167 511.833 351.5 502.5C325.9 536.5 327.5 575.667 331.5 591C331.5 623 360.833 631.333 375.5 631.5C387.5 617.9 417.167 617.5 430.5 619C419.3 649.4 435.167 661 444.5 663C430.9 699 363.5 718 331.5 723C349.1 719.4 358.167 695.167 360.5 683.5C224.1 702.3 176.333 662.667 169.5 640.5L214 631.5Z" fill="#6CD000"/>
<path d="M356 683.5C276.4 702.3 166.833 660.333 122 637L88 662L96.5 702.5L346 729C372.4 690.2 363.667 682.5 356 683.5Z" fill="#3F5B1E"/>
<path d="M441 662C434.6 644.8 461.667 644.167 476 646L493 692.5C452.6 688.9 441.5 670.667 441 662Z" fill="#3F5B1E"/>
<path d="M441 661C443 672.2 457.167 681.667 464 685L448 717.5L325.5 726.5C349.5 692.5 438.5 647 441 661Z" fill="#649D28"/>
</g>
<path d="M311.012 158.171H260V186.789H311.012V205C338.983 195.01 351.325 177.249 354 169.618C346.205 153.384 322.093 143.775 311.012 141V158.171Z" fill="url(#paint2_linear_9_320)"/>
<mask id="mask3_9_320" style="mask-type:alpha" maskUnits="userSpaceOnUse" x="93" y="126" width="114" height="85">
<path d="M193.776 164.412C135.216 90.6704 103.949 139.831 95.6346 173.629C90.8631 187.441 93.6465 203.965 95.6346 210.5H181.847C219.585 209.199 205.524 179.232 193.776 164.412Z" fill="#3E2417"/>
</mask>
<g mask="url(#mask3_9_320)">
<path d="M193.776 164.412C135.216 90.6704 103.949 139.831 95.6346 173.629C90.8631 187.441 93.6465 203.965 95.6346 210.5H181.847C219.585 209.199 205.524 179.232 193.776 164.412Z" fill="#3E2417"/>
<path d="M132.04 153.025C118.159 143.916 93.7231 167.303 83.2402 180.136L100.049 128.625L120.653 111.275L170.537 115.612L206.865 153.025C179.104 186.426 145.414 166.942 132.04 153.025Z" fill="#5B3511"/>
</g>
<mask id="mask4_9_320" style="mask-type:alpha" maskUnits="userSpaceOnUse" x="368" y="78" width="110" height="82">
<path d="M368 81.5338V159.534H478V123.034C478 93.8338 456 83.2004 445 81.5338C408.2 75.1338 378.333 78.8671 368 81.5338Z" fill="#3E2417"/>
</mask>
<g mask="url(#mask4_9_320)">
<path d="M368 81.5338V159.534H478V123.034C478 93.8338 456 83.2004 445 81.5338C408.2 75.1338 378.333 78.8671 368 81.5338Z" fill="#3E2417"/>
<path d="M426 98.5338C402.8 76.5338 377.333 102.034 367.5 117.534L358 58.0338L467 34.0338L488.5 66.0338L467 98.5338C457.4 132.534 435.667 112.7 426 98.5338Z" fill="#5B3511"/>
</g>
<mask id="mask5_9_320" style="mask-type:alpha" maskUnits="userSpaceOnUse" x="401" y="173" width="110" height="82">
<path d="M401 176.534V254.534H511V218.034C511 188.834 489 178.2 478 176.534C441.2 170.134 411.333 173.867 401 176.534Z" fill="#3E2417"/>
</mask>
<g mask="url(#mask5_9_320)">
<path d="M401 176.534V254.534H511V218.034C511 188.834 489 178.2 478 176.534C441.2 170.134 411.333 173.867 401 176.534Z" fill="#3E2417"/>
<path d="M459 193.534C435.8 171.534 410.333 197.034 400.5 212.534L391 153.034L500 129.034L521.5 161.034L500 193.534C490.4 227.534 468.667 207.7 459 193.534Z" fill="#5B3511"/>
</g>
<defs>
<linearGradient id="paint0_linear_9_320" x1="267" y1="351" x2="267" y2="611" gradientUnits="userSpaceOnUse">
<stop stop-color="#FF9000" stop-opacity="0"/>
<stop offset="0.40625" stop-color="#FE8E00" stop-opacity="0.40625"/>
<stop offset="1" stop-color="#2F1B06"/>
</linearGradient>
<linearGradient id="paint1_linear_9_320" x1="299.5" y1="-17" x2="299.5" y2="325" gradientUnits="userSpaceOnUse">
<stop offset="0.0424398" stop-color="#EE9F2C" stop-opacity="0.67"/>
<stop offset="1" stop-color="#9A6307" stop-opacity="0.55"/>
</linearGradient>
<linearGradient id="paint2_linear_9_320" x1="307" y1="141" x2="307" y2="205" gradientUnits="userSpaceOnUse">
<stop stop-color="#FFC700"/>
<stop offset="1" stop-color="#E27A00"/>
</linearGradient>
</defs>
</svg>
